<svg xmlns="http://www.w3.org/2000/svg" xmlns:xlink="http://www.w3.org/1999/xlink" viewBox="0 0 167.5 167.5"><defs><radialGradient id="a" cx="463.19" cy="867.04" r="83.75" gradientTransform="matrix(1.14, 1.13, 1.02, -1.02, -932.65, 836.95)" gradientUnits="userSpaceOnUse"><stop offset="0" stop-color="#2277b6"/><stop offset="0.1" stop-color="#4086c2"/><stop offset="0.22" stop-color="#1b73b3"/><stop offset="0.54" stop-color="#124783"/><stop offset="0.78" stop-color="#003e73"/><stop offset="1" stop-color="#002448"/></radialGradient><linearGradient id="b" x1="391.95" y1="911.37" x2="422.63" y2="966.55" gradientTransform="translate(-3.25 -653.25) scale(1.25)" gradientUnits="userSpaceOnUse"><stop offset="0" stop-color="#dd4b44"/><stop offset="0.2" stop-color="#de5448"/><stop offset="0.35" stop-color="#db3d39"/><stop offset="0.49" stop-color="#cc2c2e"/><stop offset="0.75" stop-color="#ae2826"/><stop offset="1" stop-color="#8a211b"/></linearGradient></defs><title>Paris Saint-Germain logo</title><path d="M512,428.25A83.75,83.75,0,1,0,595.75,512,83.84,83.84,0,0,0,512,428.25" transform="translate(-428.25 -428.25)" style="fill:url(#a)"/><path d="M511.89,434.26a77.77,77.77,0,1,0,55,22.77,77.25,77.25,0,0,0-55-22.77m0,3.08A74.68,74.68,0,1,1,437.2,512a74.69,74.69,0,0,1,74.69-74.68" transform="translate(-428.25 -428.25)" style="fill:#fff"/><path d="M511.94,469.5c-1.32,0-2.63.07-3.92.19-.29,16.2-4.25,30.05-10.94,41.79h29.69c-6.69-11.73-10.64-25.59-10.94-41.79C514.55,469.57,513.25,469.5,511.94,469.5Zm-15.83,43.64a86.43,86.43,0,0,1-19.94,22.6,43,43,0,0,0,13.25,12.91,19.93,19.93,0,0,1-.31-3.47c0-11.79,10.22-21.34,22.83-21.34s22.83,9.55,22.83,21.34a19.93,19.93,0,0,1-.31,3.47,43,43,0,0,0,13.24-12.9,86.43,86.43,0,0,1-20-22.62Z" transform="translate(-428.25 -428.25)" style="fill:url(#b)"/><path d="M518,469.93a42.77,42.77,0,0,1,32.18,61.56c-18.85-14.15-30.3-34.08-32.18-61.56m16.48,78.71a19.8,19.8,0,0,0,.31-3.46c0-11.79-10.22-21.35-22.83-21.35s-22.83,9.56-22.83,21.35a19.8,19.8,0,0,0,.31,3.46,42.92,42.92,0,0,1-13.25-12.91,86.22,86.22,0,0,0,19.94-22.6h31.64a86.23,86.23,0,0,0,20,22.62,42.93,42.93,0,0,1-13.24,12.9m-7.17,3.56a42.74,42.74,0,0,1-30.7,0,16.45,16.45,0,0,1-2.75-9.1c0-9.49,8.1-17.19,18.1-17.19s18.1,7.7,18.1,17.19a16.45,16.45,0,0,1-2.75,9.1m-58.13-39.93a42.78,42.78,0,0,1,36.75-42.35c-1.88,27.49-13.34,47.42-32.19,61.56a42.58,42.58,0,0,1-4.56-19.22m42.78-42.78c1.32,0,2.61.07,3.89.19.3,16.2,4.25,30,10.94,41.79H497.08c6.69-11.74,10.65-25.59,10.94-41.79,1.29-.12,2.6-.19,3.92-.19m0-3.08a45.86,45.86,0,1,0,45.86,45.86,45.91,45.91,0,0,0-45.86-45.86" transform="translate(-428.25 -428.25)" style="fill:#fff"/><path d="M513.46,548.21l-1.52-1.77-1.52,1.77-.06.17a5.83,5.83,0,0,0,1.44,1.85l.14.07.14-.07a5.86,5.86,0,0,0,1.45-1.85l-.07-.17" transform="translate(-428.25 -428.25)" style="fill:#c2a24e"/><path d="M514.92,538.61c0-1.75-2.29-7.2-3-7.2l-.17.07c-.83.68-2.81,5.5-2.81,7.13,0,1.3,2.63,4.74,2.63,6.61h0l.35.35.35-.35h0c0-1.87,2.63-5.29,2.63-6.59" transform="translate(-428.25 -428.25)" style="fill:#c2a24e"/><path d="M510.45,545.05c-1.24-3.26-3.36-5-5.58-5a3,3,0,0,0-3,3c0,1.68,1.63,2.75,3,3a1.49,1.49,0,0,0,1.28-.53c.25-.28.5-.76.31-1.08-.07-.11-.27,0-.39-.07-.42-.22-1-.54-1-1a1.16,1.16,0,0,1,1-1c1.59-.08,2.75,1,3.7,3h0l.34.2.37-.38,0-.15" transform="translate(-428.25 -428.25)" style="fill:#c2a24e"/><path d="M518.91,540c-2.21,0-4.35,1.78-5.58,5l0,.15.37.39.33-.21h0c.94-2,2.12-3.09,3.7-3a1.16,1.16,0,0,1,1,1c0,.48-.59.79-1,1-.12.06-.32,0-.39.07-.2.32.06.81.31,1.09a1.48,1.48,0,0,0,1.28.53c1.4-.28,3-1.36,3-3a3,3,0,0,0-3-3" transform="translate(-428.25 -428.25)" style="fill:#c2a24e"/><path d="M532.93,466.24l7.39-17.78c-1.22-.55-2.44-1-3.69-1.52l-7.39,17.76q1.87.7,3.68,1.54" transform="translate(-428.25 -428.25)" style="fill:#fff"/><path d="M511.63,446h7.15a3.17,3.17,0,0,1,0,6.35h-7.15V446Zm0,15.58v-5.82h4.87l4.2,6.65a49.65,49.65,0,0,1,4.91,1.14l-5-8a6.87,6.87,0,0,0,5.27-6.34c0-3.63-3.44-6.58-7.06-6.58h-11V461.7c1.28-.1,2.57-.16,3.88-.16h0Z" transform="translate(-428.25 -428.25)" style="fill:#fff"/><path d="M465.28,464.82l5.24-5.75a3.17,3.17,0,0,1,4.69,4.27L470,469.1Zm11.57,10.54-4.36-4,5.4-5.94a6.74,6.74,0,0,0-.24-9.43,6.83,6.83,0,0,0-9.49.57l-8,8.82,14,12.72c.87-1,1.79-1.88,2.74-2.77" transform="translate(-428.25 -428.25)" style="fill:#fff"/><path d="M549.76,459.23c2.88-.68,8.17,4.58,9.19,8.14.84-.64,2.71-2,2.71-2-2.24-6.37-11.15-12.74-15.38-8.75-2.51,2.37-1.09,6,1.1,8.33l2.13,2.24c2.17,2.28,4.06,4.55,2.32,6s-7.05-2.31-10.18-8.92l-2.79,2.11a21.22,21.22,0,0,0,4.19,6.39,14.19,14.19,0,0,0,7,4.43,5.3,5.3,0,0,0,4.67-1c2.89-2.68,1.83-6.57-2.7-11.35l-1.87-2c-2.09-2.2-1.24-3.45-.43-3.64" transform="translate(-428.25 -428.25)" style="fill:#fff"/><path d="M489.49,458.22l.33-8.22,5.41,6.21a58.1,58.1,0,0,0-5.74,2m1.16-12.46q-2.05.65-4,1.44L485.16,469q1.94-1.19,4-2.2l.21-5.08a54.58,54.58,0,0,1,8.2-2.87l3.35,3.84q2.21-.48,4.49-.76Z" transform="translate(-428.25 -428.25)" style="fill:#fff"/><path d="M474.65,556.28l-2.47,1.17,1.72,1.46Zm-.92,7-.92-.69.78-2.56-2.44-2.07-2.43,1.16-.82-.76,7.17-3.38.88.74-2.21,7.56Z" transform="translate(-428.25 -428.25)" style="fill:#fff"/><path d="M480.81,559.31l-4,6.1-.86-.57,4-6.09Z" transform="translate(-428.25 -428.25)" style="fill:#fff"/><path d="M484,561.31l1.24,6.81h0l2.54-4.83.91.49-3.33,6.36-.9-.41-1.26-6.89h0l-2.58,4.89-.88-.51,3.35-6.38.91.48Z" transform="translate(-428.25 -428.25)" style="fill:#fff"/><path d="M496.36,566.61l-.34,1-2.38-.83-2,5.86-1-.34,2-5.86-2.38-.82.34-1Z" transform="translate(-428.25 -428.25)" style="fill:#fff"/><path d="M512.13,572l3.29.05,0,1.9c0,1.29-1.45,2.13-3.25,2.1a3.74,3.74,0,1,1,.15-7.48,4.08,4.08,0,0,1,3,1.35l-.72.72a2.82,2.82,0,0,0-2.19-1,2.72,2.72,0,1,0-.17,5.41c1.24,0,2.14-.54,2.15-1.15l0-.8-2.26,0,0-1Z" transform="translate(-428.25 -428.25)" style="fill:#fff"/><path d="M523.3,567.63l.15,1-4.79.68.27,1.87,2.41-.35.15,1-2.41.34.31,2.17,5-.72.15,1-6,.86-1-7.1,5.81-.83Z" transform="translate(-428.25 -428.25)" style="fill:#fff"/><path d="M527.06,567.73l.61,2,3.06-.92a1.06,1.06,0,0,0,.84-1.4c-.23-.78-.88-.79-1.46-.62Zm2.76-1.91a2,2,0,0,1,2.75,1.31,1.89,1.89,0,0,1-1,2.48l2.24,2.41-1.08.39L530.52,570l-2.56.77.86,2.89-1,.28L525.78,567Z" transform="translate(-428.25 -428.25)" style="fill:#fff"/><path d="M545.59,559.1l.53,2.69,1.84-1.31Zm6.47,2.59-.9.72L548.94,561l-2.61,1.86.5,2.6-.92.58-1.52-7.72.94-.66Z" transform="translate(-428.25 -428.25)" style="fill:#fff"/><path d="M549.82,554.14l4.9,5.27-.78.68-4.88-5.25Z" transform="translate(-428.25 -428.25)" style="fill:#fff"/><path d="M552.67,551.33l6.91.48v0l-4.06-3.64.69-.76,5.33,4.79-.62.77-7-.48h0l4.11,3.7-.72.74L552,552.1l.69-.77Z" transform="translate(-428.25 -428.25)" style="fill:#fff"/><path d="M540.52,561l-.92.47-.16,5.08-4.21-2.86-.92.47,3.13,6.45.94-.42-2.17-4.59h0l4.17,2.83.16-5h0l2.44,4.46.9-.51-3.4-6.34Z" transform="translate(-428.25 -428.25)" style="fill:#fff"/><path d="M471,551.73c-.59-2.19-2.81-4.33-4.48-4.33l-1,.32-.6,1a3.1,3.1,0,0,0,.7,2.15l.76,1c.59.79,1.16,1.62,1,2.27l-.44.64-.47.13c-1,0-2.79-1.85-3.66-4.5v0l-.76.71h0a8.57,8.57,0,0,0,1.38,2.75,5.71,5.71,0,0,0,2.56,2.08l.8.13,1-.28.72-1.15c.13-.84-.32-2-1.34-3.32l-.67-.9c-.54-.72-.52-1.19-.41-1.46l.57-.43h.11c1.24,0,3,2,3.43,3.63v0l0,0,.73-.42h0v0Z" transform="translate(-428.25 -428.25)" style="fill:#fff"/><path d="M502.55,572.27l-2.56-.57.24-1,2.55.57Z" transform="translate(-428.25 -428.25)" style="fill:#fff"/></svg>